<svg width="151" height="28" xmlns="http://www.w3.org/2000/svg" xmlns:xlink="http://www.w3.org/1999/xlink" xml:space="preserve" overflow="hidden"><defs><clipPath id="clip0"><rect x="0" y="0" width="151" height="28"/></clipPath></defs><g clip-path="url(#clip0)"><path d="M984.218 28.69 1135.22 28.69 1135.22 56.474 984.218 56.474Z" fill="#213E7F" transform="matrix(1 0 0 1.00777 -984.218 -28.913)"/><path d="M1114.68 36.24 1127.97 36.24 1127.97 48.924 1114.68 48.924Z" fill="#FFFFFF" transform="matrix(1 0 0 1.00777 -984.218 -28.913)"/><path d="M1076.65 41.374C1076.65 43.79 1076.65 43.79 1076.65 43.79 1079.82 43.79 1079.82 43.79 1079.82 43.79 1079.82 45.904 1079.82 45.904 1079.82 45.904 1079.18 46.508 1078.23 46.81 1076.96 46.81 1074.43 46.81 1072.52 45.3 1072.52 42.582 1072.52 39.864 1074.43 38.354 1076.96 38.354 1078.23 38.354 1079.5 38.656 1080.45 39.562 1080.45 39.562 1080.45 39.562 1080.45 39.562 1082.35 38.052 1082.35 38.052 1082.35 38.052 1082.04 38.052 1082.04 38.052 1082.04 38.052 1080.77 36.844 1079.18 35.938 1076.96 35.938 1072.84 35.938 1069.99 38.656 1069.99 42.582 1069.99 46.508 1072.84 49.226 1076.96 49.226 1079.18 49.226 1081.4 48.32 1082.67 46.81 1082.67 46.508 1082.67 46.508 1082.67 46.508 1082.67 41.374 1082.67 41.374 1082.67 41.374L1076.65 41.374Z" fill="#FFFFFF" fill-rule="evenodd" transform="matrix(1 0 0 1.00777 -984.218 -28.913)"/><path d="M1095.35 38.656 1095.35 36.24 1085.69 36.24 1085.69 48.924 1088.41 48.924 1088.41 43.79 1095.05 43.79 1095.05 41.676 1088.41 41.676 1088.41 38.656 1095.35 38.656Z" fill="#FFFFFF" fill-rule="evenodd" transform="matrix(1 0 0 1.00777 -984.218 -28.913)"/><path d="M1096.86 36.24 1096.86 38.656 1100.19 38.656 1100.19 48.924 1102.9 48.924 1102.9 38.656 1106.53 38.656 1106.53 36.24 1096.86 36.24Z" fill="#FFFFFF" fill-rule="evenodd" transform="matrix(1 0 0 1.00777 -984.218 -28.913)"/></g></svg>